<?xml version="1.0" encoding="UTF-8"?>
<svg id="_레이어_1" data-name="레이어 1" xmlns="http://www.w3.org/2000/svg" viewBox="0 0 578.31 75.75">
  <defs>
    <style>
      .cls-1 {
        stroke-width: 0px;
      }
    </style>
  </defs>
  <path class="cls-1" d="m77.68,1.46h25.29c5.87,0,11.1.88,15.68,2.65,4.58,1.77,8.46,4.25,11.62,7.44s5.56,6.99,7.2,11.4c1.65,4.41,2.48,9.25,2.48,14.52v.2c0,5.27-.85,10.14-2.53,14.61s-4.13,8.33-7.3,11.6c-3.19,3.26-7.11,5.81-11.76,7.64-4.66,1.84-9.92,2.76-15.78,2.76h-24.91V1.46Zm25.6,54.94c5.45,0,9.84-1.6,13.15-4.79,3.33-3.19,4.98-7.74,4.98-13.62v-.2c0-5.82-1.66-10.36-4.98-13.58-3.33-3.22-7.71-4.83-13.15-4.83h-7.42v37.04h7.42v-.02Z"/>
  <path class="cls-1" d="m144.17,1.46h52.63v17.17h-34.75v11.03h31.47v15.92h-31.47v11.55h35.21v17.17h-53.1V1.46h.02Z"/>
  <path class="cls-1" d="m201.48,1.46h31c5.05,0,9.34.69,12.82,2.09,3.5,1.38,6.34,3.33,8.52,5.82,3.86,4.16,5.81,9.81,5.81,16.97v.2c0,5.62-1.22,10.27-3.66,13.94s-5.71,6.48-9.84,8.43l15.63,25.4h-20.99l-13.2-22.05h-7.96v22.05h-18.16V1.46h.02Zm30.15,34.96c3.12,0,5.53-.78,7.2-2.34,1.7-1.55,2.53-3.66,2.53-6.29v-.2c0-2.92-.88-5.09-2.62-6.5-1.74-1.43-4.14-2.13-7.2-2.13h-11.9v17.49h11.99v-.02Z"/>
  <path class="cls-1" d="m263.67,1.46h52.63v17.17h-34.75v11.03h31.47v15.92h-31.47v11.55h35.21v17.17h-53.1V1.46h.02Z"/>
  <path class="cls-1" d="m320.98,1.46h31c5.05,0,9.34.69,12.82,2.09,3.5,1.38,6.34,3.33,8.52,5.82,3.86,4.16,5.81,9.81,5.81,16.97v.2c0,5.62-1.22,10.27-3.66,13.94s-5.71,6.48-9.84,8.43l15.63,25.4h-20.99l-13.2-22.05h-7.96v22.05h-18.16V1.46h.02Zm30.15,34.96c3.12,0,5.53-.78,7.2-2.34,1.7-1.55,2.53-3.66,2.53-6.29v-.2c0-2.92-.88-5.09-2.62-6.5-1.74-1.43-4.14-2.13-7.2-2.13h-11.9v17.49h11.99v-.02Z"/>
  <path class="cls-1" d="m383.17,1.46h31c5.05,0,9.34.69,12.82,2.09,3.5,1.38,6.34,3.33,8.52,5.82,3.86,4.16,5.81,9.81,5.81,16.97v.2c0,5.62-1.22,10.27-3.66,13.94s-5.71,6.48-9.84,8.43l15.63,25.4h-20.99l-13.2-22.05h-7.96v22.05h-18.16V1.46h.02Zm30.15,34.96c3.12,0,5.53-.78,7.2-2.34,1.7-1.55,2.53-3.66,2.53-6.29v-.2c0-2.92-.88-5.09-2.62-6.5-1.74-1.43-4.14-2.13-7.2-2.13h-11.9v17.49h11.99v-.02Z"/>
  <path class="cls-1" d="m478.33,75.75c-5.05,0-9.73-.99-14.05-2.97s-8.02-4.66-11.14-8.07c-3.12-3.39-5.57-7.39-7.35-11.96-1.77-4.58-2.67-9.47-2.67-14.68v-.2c0-5.2.89-10.11,2.67-14.72,1.77-4.61,4.27-8.63,7.44-12.07,3.19-3.44,6.92-6.14,11.24-8.12s8.99-2.97,14.05-2.97,9.73.99,14.05,2.97,8.02,4.66,11.14,8.07c3.12,3.41,5.57,7.39,7.35,11.96,1.77,4.58,2.67,9.47,2.67,14.68v.2c0,5.2-.89,10.11-2.67,14.72s-4.27,8.63-7.44,12.07c-3.19,3.44-6.92,6.14-11.24,8.12-4.3,1.98-8.99,2.97-14.05,2.97Zm.14-18.21c2.5,0,4.79-.52,6.86-1.55s3.81-2.45,5.26-4.22c1.44-1.77,2.57-3.83,3.39-6.18s1.22-4.85,1.22-7.49v-.2c0-2.64-.41-5.13-1.22-7.49s-1.98-4.44-3.47-6.25c-1.51-1.81-3.28-3.25-5.35-4.32-2.07-1.08-4.35-1.62-6.86-1.62s-4.77.52-6.81,1.57c-2.04,1.04-3.78,2.45-5.26,4.21-1.48,1.77-2.61,3.83-3.37,6.18-.78,2.35-1.18,4.85-1.18,7.49v.2c0,2.64.41,5.13,1.22,7.49s1.96,4.44,3.42,6.25c1.48,1.81,3.23,3.25,5.31,4.32,2.07,1.08,4.35,1.62,6.86,1.62h-.02Z"/>
  <path class="cls-1" d="m518.02,1.46h31c5.05,0,9.34.69,12.82,2.09,3.5,1.38,6.34,3.33,8.52,5.82,3.86,4.16,5.81,9.81,5.81,16.97v.2c0,5.62-1.22,10.27-3.66,13.94s-5.71,6.48-9.84,8.43l15.63,25.4h-20.99l-13.2-22.05h-7.96v22.05h-18.16V1.46h.02Zm30.15,34.96c3.12,0,5.53-.78,7.2-2.34,1.7-1.55,2.53-3.66,2.53-6.29v-.2c0-2.92-.88-5.09-2.62-6.5-1.74-1.43-4.14-2.13-7.2-2.13h-11.9v17.49h11.99v-.02Z"/>
  <path class="cls-1" d="m54.2,1.46h-6.75L0,74.29h21.79l8.27-12.7h24.14v12.7h18.26V1.46h-18.26Zm-13.77,44.23l13.77-21.14v21.14h-13.77Z"/>
</svg>